HIERARCHY
ROOT Hips
{
	OFFSET 0.00000 0.00000 0.00000
	CHANNELS 6 Xposition Yposition Zposition Zrotation Yrotation Xrotation 
	JOINT LHipJoint
	{
		OFFSET 0 0 0
		CHANNELS 3 Zrotation Yrotation Xrotation
		JOINT LeftHip
		{
			OFFSET 1.34019 -1.87553 0.90315
			CHANNELS 3 Zrotation Yrotation Xrotation
			JOINT LeftKnee
			{
				OFFSET 2.55316 -7.01474 0.00000
				CHANNELS 3 Zrotation Yrotation Xrotation
				JOINT LeftAnkle
				{
					OFFSET 2.64657 -7.27139 0.00000
					CHANNELS 3 Zrotation Yrotation Xrotation
					JOINT LeftToe
					{
						OFFSET 0.24207 -0.66507 2.14489
						CHANNELS 3 Zrotation Yrotation Xrotation
						End Site
						{
							OFFSET 0.00000 -0.00000 1.12451
						}
					}
				}
			}
		}
	}
	JOINT RHipJoint
	{
		OFFSET 0 0 0
		CHANNELS 3 Zrotation Yrotation Xrotation
		JOINT RightHip
		{
			OFFSET -1.28320 -1.87553 0.90315
			CHANNELS 3 Zrotation Yrotation Xrotation
			JOINT RightKnee
			{
				OFFSET -2.60484 -7.15674 0.00000
				CHANNELS 3 Zrotation Yrotation Xrotation
				JOINT RightAnkle
				{
					OFFSET -2.60296 -7.15159 0.00000
					CHANNELS 3 Zrotation Yrotation Xrotation
					JOINT RightToe
					{
						OFFSET -0.31082 -0.85398 2.28998
						CHANNELS 3 Zrotation Yrotation Xrotation
						End Site
						{
							OFFSET -0.00000 -0.00000 1.21611
						}
					}
				}
			}
		}
	}
	JOINT lowerback
	{
		OFFSET 0 0 0
		CHANNELS 3 Zrotation Yrotation Xrotation
		JOINT Chest
		{
			OFFSET -0.00160 2.05581 -0.15156
			CHANNELS 3 Zrotation Yrotation Xrotation
			JOINT Chest2
			{
				OFFSET 0.04594 2.06326 -0.01617
				CHANNELS 3 Zrotation Yrotation Xrotation
				JOINT lowerneck
				{
					OFFSET 0 0 0
					CHANNELS 3 Zrotation Yrotation Xrotation
					JOINT Neck
					{
						OFFSET 0.03753 1.73883 0.26751
						CHANNELS 3 Zrotation Yrotation Xrotation
						JOINT Head
						{
							OFFSET -0.09795 1.76129 -0.31794
							CHANNELS 3 Zrotation Yrotation Xrotation
							End Site
							{
								OFFSET -0.03611 1.79987 -0.13846
							}
						}
					}
				}
				JOINT LeftCollar
				{
					OFFSET 0 0 0
					CHANNELS 3 Zrotation Yrotation Xrotation
					JOINT LeftShoulder
					{
						OFFSET 3.30667 1.29205 -0.22445
CHANNELS 3 Zrotation Xrotation Yrotation
						JOINT LeftElbow
						{
OFFSET 0 -4.927850 -0.000000
CHANNELS 3 Zrotation Xrotation Yrotation
							JOINT LeftWrist
							{
OFFSET 0 -3.440520 0.000000
CHANNELS 3 Zrotation Xrotation Yrotation
								JOINT lhand
								{
									OFFSET 0 0 0
CHANNELS 3 Zrotation Xrotation Yrotation
									JOINT LFingers
									{
OFFSET 0 -0.654330 0.000000
CHANNELS 3 Zrotation Xrotation Yrotation
										End Site
										{
OFFSET 0 -0.527530 0.000000
										}
									}
								}
								JOINT LThumb
								{
OFFSET 0 0.000000 0.000000
CHANNELS 3 Zrotation Xrotation Yrotation
									End Site
									{
OFFSET 0 -0.535590 0.535590
									}
								}
							}
						}
					}
				}
				JOINT RightCollar
				{
					OFFSET 0 0 0
					CHANNELS 3 Zrotation Yrotation Xrotation
					JOINT RightShoulder
					{
						OFFSET -3.20032 1.49783 -0.27688
CHANNELS 3 Zrotation Xrotation Yrotation
						JOINT RightElbow
						{
OFFSET 0 -5.091810 -0.000000
CHANNELS 3 Zrotation Xrotation Yrotation
							JOINT RightWrist
							{
OFFSET 0 -3.498650 -0.000000
CHANNELS 3 Zrotation Xrotation Yrotation
								JOINT rhand
								{
									OFFSET 0 0 0
CHANNELS 3 Zrotation Xrotation Yrotation
									JOINT RFingers
									{
OFFSET 0 -0.666410 0.000000
CHANNELS 3 Zrotation Xrotation Yrotation
										End Site
										{
OFFSET 0 -0.537280 0.000000
										}
									}
								}
								JOINT RThumb
								{
OFFSET 0 0.000000 0.000000
CHANNELS 3 Zrotation Xrotation Yrotation
									End Site
									{
OFFSET 0 -0.545480 0.545480
									}
								}
							}
						}
					}
				}
			}
		}
	}
}
MOTION
Frames: 9
Frame Time: 0.008333333333333333
0.390900 17.779900 -30.407200 -2.345800 -2.703300 4.326500 0.000000 0.000000 0.000000 -16.083100 -3.800400 -9.371800 2.622700 10.057600 29.163500 -0.125700 15.994800 -21.409600 0.210100 -2.951400 -8.143300 0.000000 0.000000 0.000000 18.463900 6.239200 -12.525200 -3.243800 -11.079600 32.548800 -0.357700 -11.923200 -21.107100 -0.067800 1.679500 -4.620600 -0.214100 -3.428800 1.979800 3.985500 -4.493100 -1.706400 4.407200 -2.207100 -2.527600 11.939100 3.865200 -18.792400 -13.395600 6.126200 31.713200 -6.641200 2.249900 15.010700 -0.000000 -0.000000 0.000000 2.240600 6.169300 -20.333400 17.282700 -27.229000 4.215900 12.249700 -7.667000 -0.274200 0.000000 0.000000 0.000000 -7.125000 0.000000 0.000000 -11.262200 30.156500 -4.152300 -0.000000 -0.000000 0.000000 -8.277000 4.386000 17.643600 -14.946700 -24.071700 -3.204200 -14.190900 -6.402000 1.323600 0.000000 0.000000 0.000000 7.125000 0.000000 -0.000000 9.860300 31.252200 3.357800
0.388919 17.779555 -30.407028 -2.301005 -2.708985 4.339077 0.000000 0.000000 0.000000 -16.125224 -3.789115 -9.379553 2.619254 10.051570 29.144032 -0.125700 15.987047 -21.398057 0.211220 -2.958722 -8.163716 0.000000 0.000000 0.000000 18.415143 6.236960 -12.563534 -3.251036 -11.090799 32.586703 -0.361663 -11.905885 -21.127688 -0.067628 1.678036 -4.616724 -0.210654 -3.347911 2.008486 3.888761 -4.386368 -1.697613 4.303052 -2.154036 -2.550428 11.773015 3.678613 -18.868206 -13.168439 5.821682 31.793314 -6.570476 2.125853 14.991662 0.000000 0.000000 0.000000 2.454064 6.105295 -20.668757 17.265041 -27.205914 4.207803 12.260640 -7.719203 -0.313568 0.000000 0.000000 0.000000 -7.125000 0.000000 0.000000 -11.258237 30.196126 -4.139895 0.000000 0.000000 0.000000 -8.080162 4.439581 17.325730 -14.935501 -24.056194 -3.199634 -14.198481 -6.317752 1.341087 0.000000 0.000000 0.000000 7.125000 0.000000 0.000000 9.856251 31.270204 3.352028
0.386793 17.779066 -30.406711 -2.253175 -2.714093 4.350280 0.000000 0.000000 0.000000 -16.170023 -3.775806 -9.387450 2.616170 10.046118 29.126153 -0.125628 15.977848 -21.385068 0.212412 -2.967056 -8.187024 0.000000 0.000000 0.000000 18.363422 6.230817 -12.601073 -3.258200 -11.101708 32.623667 -0.365336 -11.887847 -21.144301 -0.067672 1.678523 -4.618052 -0.205112 -3.261456 2.039774 3.786311 -4.272191 -1.688899 4.191604 -2.097284 -2.575497 11.586762 3.476051 -18.941338 -12.925665 5.495334 31.875307 -6.493102 1.992265 14.969372 0.000000 0.000000 0.000000 2.677286 6.039917 -21.024282 17.249405 -27.185429 4.200645 12.256400 -7.768515 -0.370935 0.000000 0.000000 0.000000 -7.125000 0.000000 0.000000 -11.268298 30.253752 -4.127924 0.000000 0.000000 0.000000 -7.870384 4.495187 16.983500 -14.925676 -24.042495 -3.195647 -14.198327 -6.232563 1.344912 0.000000 0.000000 0.000000 7.125000 0.000000 0.000000 9.856757 31.274040 3.351317
0.384464 17.778549 -30.406483 -2.211890 -2.718855 4.359059 0.000000 0.000000 0.000000 -16.205518 -3.758253 -9.395142 2.613389 10.041186 29.110158 -0.125074 15.964575 -21.371451 0.213326 -2.973423 -8.204692 0.000000 0.000000 0.000000 18.321241 6.225795 -12.634544 -3.264941 -11.112036 32.658697 -0.368078 -11.874579 -21.157347 -0.067875 1.680553 -4.623650 -0.225637 -3.239494 2.071853 3.746806 -4.243881 -1.683237 4.163130 -2.082832 -2.591238 11.515491 3.408731 -18.967738 -12.833453 5.385962 31.905131 -6.460905 1.947707 14.962876 0.000000 0.000000 0.000000 2.758815 6.010444 -21.155034 17.247071 -27.182389 4.199569 12.243699 -7.785485 -0.431460 0.000000 0.000000 0.000000 -7.125000 0.000000 0.000000 -11.285372 30.314302 -4.117731 0.000000 0.000000 0.000000 -7.793160 4.514135 16.860857 -14.907466 -24.017048 -3.188206 -14.194236 -6.174073 1.340158 0.000000 0.000000 0.000000 7.125000 0.000000 0.000000 9.859479 31.269141 3.353445
0.381784 17.778122 -30.406311 -2.178133 -2.720298 4.368238 0.000000 0.000000 0.000000 -16.230073 -3.740609 -9.405174 2.610986 10.036939 29.096426 -0.124031 15.946959 -21.356331 0.213834 -2.976936 -8.214519 0.000000 0.000000 0.000000 18.289872 6.221571 -12.666025 -3.271176 -11.121580 32.691068 -0.370314 -11.865244 -21.169597 -0.068000 1.681978 -4.627501 -0.293529 -3.346287 2.101664 3.825709 -4.386776 -1.692878 4.290388 -2.152517 -2.596199 11.708037 3.619271 -18.892876 -13.061012 5.717661 31.839658 -6.533069 2.086428 14.993855 0.000000 0.000000 0.000000 2.566320 6.065656 -20.843929 17.267621 -27.209227 4.208958 12.227118 -7.742316 -0.485160 0.000000 0.000000 0.000000 -7.125000 0.000000 0.000000 -11.304674 30.367827 -4.110214 0.000000 0.000000 0.000000 -7.975349 4.479051 17.177278 -14.874680 -23.971199 -3.174841 -14.189694 -6.170365 1.337213 0.000000 0.000000 0.000000 7.125000 0.000000 0.000000 9.862749 31.266069 3.355346
0.378763 17.777808 -30.406139 -2.152419 -2.716167 4.379853 0.000000 0.000000 0.000000 -16.242960 -3.725969 -9.419305 2.609109 10.033640 29.085674 -0.122493 15.925038 -21.339626 0.213969 -2.977854 -8.217163 0.000000 0.000000 0.000000 18.269921 6.217264 -12.697136 -3.276720 -11.130072 32.719800 -0.372038 -11.860722 -21.181885 -0.068061 1.682845 -4.629843 -0.384394 -3.533838 2.121427 3.977189 -4.637142 -1.708752 4.508972 -2.275349 -2.585809 12.075555 4.004603 -18.745893 -13.493585 6.325401 31.703970 -6.673625 2.340987 15.044839 0.000000 0.000000 0.000000 2.205551 6.167012 -20.256997 17.300914 -27.252717 4.224208 12.210908 -7.659915 -0.515424 0.000000 0.000000 0.000000 -7.125000 0.000000 0.000000 -11.320917 30.397831 -4.108005 0.000000 0.000000 0.000000 -8.315377 4.404036 17.766773 -14.833661 -23.913824 -3.158171 -14.190978 -6.205303 1.340865 0.000000 0.000000 0.000000 7.125000 0.000000 0.000000 9.862128 31.269787 3.354272
0.375509 17.777600 -30.405949 -2.135692 -2.706841 4.394189 0.000000 0.000000 0.000000 -16.243366 -3.714666 -9.437498 2.607831 10.031380 29.078305 -0.120529 15.899643 -21.322294 0.213900 -2.977351 -8.215635 0.000000 0.000000 0.000000 18.262570 6.213362 -12.727685 -3.281359 -11.137247 32.744012 -0.372918 -11.862962 -21.193393 -0.068200 1.684401 -4.634287 -0.451372 -3.691333 2.123505 4.101033 -4.847835 -1.709524 4.682030 -2.379484 -2.555339 12.389118 4.324403 -18.609778 -13.853327 6.827094 31.565690 -6.790451 2.552950 15.077432 0.000000 0.000000 0.000000 1.912889 6.227961 -19.771624 17.325995 -27.285537 4.235730 12.197284 -7.586268 -0.507921 0.000000 0.000000 0.000000 -7.125000 0.000000 0.000000 -11.330683 30.390070 -4.113845 0.000000 0.000000 0.000000 -8.586784 4.320245 18.247871 -14.796577 -23.861948 -3.143154 -14.201675 -6.233932 1.348516 0.000000 0.000000 0.000000 7.125000 0.000000 0.000000 9.854566 31.277801 3.349689
0.371965 17.777600 -30.405676 -2.125237 -2.695381 4.411492 0.000000 0.000000 0.000000 -16.235154 -3.706848 -9.458888 2.606985 10.029776 29.073319 -0.118634 15.874431 -21.305046 0.213900 -2.977591 -8.216282 0.000000 0.000000 0.000000 18.264375 6.211368 -12.757472 -3.285199 -11.143050 32.763811 -0.373491 -11.868606 -21.205079 -0.068203 1.684933 -4.635784 -0.488912 -3.797847 2.110689 4.178583 -4.990832 -1.697368 4.786404 -2.450852 -2.513934 12.609986 4.538242 -18.507643 -14.091608 7.157497 31.453369 -6.868766 2.694710 15.089830 0.000000 0.000000 0.000000 1.732062 6.245410 -19.456713 17.337957 -27.301058 4.241144 12.183109 -7.529380 -0.471383 0.000000 0.000000 0.000000 -7.125000 0.000000 0.000000 -11.337416 30.353271 -4.126594 0.000000 0.000000 0.000000 -8.749019 4.246258 18.545699 -14.764772 -23.817420 -3.130345 -14.212845 -6.239109 1.355371 0.000000 0.000000 0.000000 7.125000 0.000000 0.000000 9.846630 31.285077 3.345101
0.368088 17.777600 -30.404987 -2.123428 -2.686250 4.428462 0.000000 0.000000 0.000000 -16.216633 -3.699612 -9.478615 2.606554 10.029087 29.070993 -0.116739 15.852378 -21.292039 0.213900 -2.977333 -8.215765 0.000000 0.000000 0.000000 18.277985 6.216192 -12.779611 -3.288042 -11.147357 32.778455 -0.373233 -11.880235 -21.215933 -0.068289 1.685881 -4.638196 -0.480642 -3.793453 2.096045 4.163766 -4.986008 -1.670664 4.763576 -2.449474 -2.480510 12.606712 4.519376 -18.494549 -14.063181 7.117268 31.415207 -6.859205 2.680669 15.059163 0.000000 0.000000 0.000000 1.779699 6.199840 -19.514430 17.328137 -27.288395 4.236664 12.174753 -7.514477 -0.396352 0.000000 0.000000 0.000000 -7.125000 0.000000 0.000000 -11.335004 30.277895 -4.146493 0.000000 0.000000 0.000000 -8.695093 4.224980 18.465414 -14.746768 -23.792179 -3.123022 -14.225594 -6.199224 1.351667 0.000000 0.000000 0.000000 7.125000 0.000000 0.000000 9.836035 31.281545 3.342258
